<svg xmlns="http://www.w3.org/2000/svg" aria-hidden="true" viewBox="0 0 512 512"><path fill="#fff" d="m325.297 256 134.148-134.148c19.136-19.136 19.136-50.161 0-69.297-19.137-19.136-50.16-19.136-69.297 0L256 186.703 121.852 52.555c-19.136-19.136-50.161-19.136-69.297 0s-19.136 50.161 0 69.297L186.703 256 52.555 390.148c-19.136 19.136-19.136 50.161 0 69.297 9.568 9.567 22.108 14.352 34.648 14.352s25.081-4.784 34.648-14.352L256 325.297l134.148 134.148c9.568 9.567 22.108 14.352 34.648 14.352s25.08-4.784 34.648-14.352c19.136-19.136 19.136-50.161 0-69.297L325.297 256z"></path></svg>